<?xml version="1.0" encoding="utf-8"?>
<!-- Generator: Adobe Illustrator 25.2.3, SVG Export Plug-In . SVG Version: 6.00 Build 0)  -->
<svg version="1.1" id="Layer_1" xmlns="http://www.w3.org/2000/svg" xmlns:xlink="http://www.w3.org/1999/xlink" x="0px" y="0px"
	 viewBox="0 0 1392.4 283.4" style="enable-background:new 0 0 1392.4 283.4;" xml:space="preserve">
<g>
	<path d="M108.3,265.9c18.9,0,18.6-22.5,18.6-22.5h1.6v24H21.1v-1.6c6.9,0,10.5-1.9,10.5-10V36.9c0-8.1-3.9-10-10.9-10v-1.6h33.5
		v1.6c-7,0-10.9,1.9-10.9,10v218.9c0,8.1,4.2,10,11.2,10H108.3z"/>
	<path d="M157.4,267.4v-1.6c6.9,0,10.8-1.9,10.8-10V36.9c0-8.1-3.9-10-10.8-10v-1.6h33.3v1.6c-6.9,0-10.8,1.9-10.8,10v218.9
		c0,8.1,3.9,10,10.8,10v1.6H157.4z"/>
	<path d="M221.7,267.4v-1.6c7,0,11-1.8,11-9.9V37.1c0-8.1-3.5-10.1-10.8-10.2v-1.6h32.5c35.3,0,62.3,27.9,62.3,62.3
		c0,34.5-27.1,62.8-62.3,62.8h-10v105.4c0,8.1,3.8,10,10.8,10v1.6H221.7z M244.3,148.9h9.7c28.6,0,50.7-27.8,50.7-61.2
		c0-33.3-22-60.8-50.7-60.8h-5.1c-2.7,0-4.6,1.9-4.6,4.7V148.9z"/>
	<path d="M412.5,256.6c1.4,8.9,7,9.2,9.3,9.2v1.6h-29.8v-1.6c1.6,0,10.2,0,8.9-8.6l-9.7-65.4h-45.7l-10.4,67c-1.1,7.4,7.3,7,8.9,7
		v1.6h-21.7v-1.6c6.2,0,10.4-1.9,11.4-8.6l33.9-218.4l-0.3-2.3c-1.6-9.4-7-9.7-8.6-9.7v-1.6h28.3v1.6c-4.7,0-8.9,1.8-7.7,9.7
		L412.5,256.6z M345.7,190.3H391L368.4,43.2L345.7,190.3z"/>
	<path d="M452.2,267.4v-1.6c7,0,10.9-1.9,10.9-10V36.9c0-8.1-3.9-10-10.9-10v-1.6h91.9c34.8,0,63.5,27.9,63.5,62
		c0,34.4-28.7,61.6-63.5,61.6h-26.4c14,2.7,40.3,10.9,59.1,33.2c18.8,22.5,42.9,82.6,73,83.8v1.6c-27.1,0.4-59.2-44.2-76.7-68.2
		c-18.2-25.5-43.4-50.3-71.2-50.3h-27.1v107.3c0,5.8,4.2,9.7,10.9,9.7v1.6H452.2z M474.8,147.3h69c27.8,0,51.9-26.7,51.9-60
		c0-32.9-23.3-60.4-51.9-60.4h-60.9c-3.9,0-8.1,3.5-8.1,9.7V147.3z"/>
	<path d="M687,267.4v-1.6c6.9,0,10.8-1.9,10.8-10V36.9c0-9.3-8.1-10-10.5-10h-11.6c-12.6,0-18.2,10.5-18.6,22.5h-1.6v-24h96.1v24
		h-1.6c-0.4-11.9-6-22.5-18.6-22.5H720c-2.3,0-10.5,0.8-10.5,10v218.9c0,8.1,3.9,10,10.8,10v1.6H687z"/>
	<path d="M780.8,267.4v-1.6c7.3,0,10.9-1.9,10.9-10V36.9c0-8.1-3.5-10-10.9-10v-1.6H870v24h-1.6c0-13.5-6.5-22.5-18.6-22.5h-36.4
		c-2.8,0-10.1,1.1-10.1,10v108.8h10.5c12,0,18.6-9.3,18.6-22.5h1.6v46.2h-1.6c0-13.2-6.6-22.1-18.6-22.1h-10.5v108.8
		c0,8.1,7.3,9.7,10.1,9.7h36.4c13.1,0,17.5-10.5,18.6-22.5h1.6v24H780.8z"/>
	<path d="M984.7,265.9c18.9,0,18.6-22.5,18.6-22.5h1.6v24H897.5v-1.6c6.9,0,10.5-1.9,10.5-10V36.9c0-8.1-3.9-10-10.9-10v-1.6h33.5
		v1.6c-7,0-10.9,1.9-10.9,10v218.9c0,8.1,4.2,10,11.2,10H984.7z"/>
	<path d="M1033.8,267.4v-1.6c6.9,0,10.8-1.9,10.8-10V36.9c0-8.1-3.9-10-10.8-10v-1.6h33.3v1.6c-6.9,0-10.8,1.9-10.8,10v218.9
		c0,8.1,3.9,10,10.8,10v1.6H1033.8z"/>
	<path d="M1178.3,256.6c1.4,8.9,7,9.2,9.3,9.2v1.6h-29.8v-1.6c1.6,0,10.2,0,8.9-8.6l-9.7-65.4h-45.7l-10.4,67c-1.1,7.4,7.3,7,8.9,7
		v1.6H1088v-1.6c6.2,0,10.4-1.9,11.4-8.6l33.9-218.4l-0.3-2.3c-1.6-9.4-7-9.7-8.6-9.7v-1.6h28.3v1.6c-4.7,0-8.9,1.8-7.7,9.7
		L1178.3,256.6z M1111.4,190.3h45.3l-22.6-147.1L1111.4,190.3z"/>
	<path d="M1213.5,267.4v-1.6c3.5,0,6.6,0,6.6-8.1V31.6c-2.2-5.1-8.3-4.7-9.7-4.7v-1.6h33.3v1.6c-5.4,0-11.3,2-9.3,9.7l58.9,218.6V35
		c0-8.1-3.1-8.1-6.7-8.1v-1.6h14.9v1.6c-3.5,0-6.7,0-6.7,8.1V257c3.5,8.1,10.1,8.9,10.5,8.9v1.6h-33.3v-1.6c5.4,0,11.8,0.4,9.4-8.6
		l-59.9-223.4v223.8c0,8.1,3.1,8.1,6.6,8.1v1.6H1213.5z"/>
	<path d="M1336.4,267.4v-1.6c6.9,0,10.8-1.9,10.8-10V36.9c0-8.1-3.9-10-10.8-10v-1.6h33.3v1.6c-6.9,0-10.8,1.9-10.8,10v218.9
		c0,8.1,3.9,10,10.8,10v1.6H1336.4z"/>
</g>
</svg>
